<svg width="24" height="24" viewBox="0 0 24 24" fill="none" xmlns="http://www.w3.org/2000/svg">
<path fill-rule="evenodd" clip-rule="evenodd" d="M12.8321 3.4453C12.6466 3.1671 12.3344 3 12 3C11.6656 3 11.3534 3.1671 11.168 3.4453L7.16795 9.4453C6.96338 9.75216 6.94431 10.1467 7.11833 10.4719C7.29235 10.797 7.63121 11 8 11H16C16.3688 11 16.7077 10.797 16.8817 10.4719C17.0557 10.1467 17.0366 9.75216 16.8321 9.4453L12.8321 3.4453ZM11.168 20.5547C11.3534 20.8329 11.6656 21 12 21C12.3344 21 12.6466 20.8329 12.8321 20.5547L16.8321 14.5547C17.0366 14.2478 17.0557 13.8533 16.8817 13.5281C16.7077 13.203 16.3688 13 16 13L8 13C7.63121 13 7.29235 13.203 7.11833 13.5281C6.94431 13.8533 6.96338 14.2478 7.16795 14.5547L11.168 20.5547Z" fill="currentColor"/>
</svg>
